<?xml version="1.0" standalone="no"?>
<!DOCTYPE svg PUBLIC "-//W3C//DTD SVG 20010904//EN"
 "http://www.w3.org/TR/2001/REC-SVG-20010904/DTD/svg10.dtd">
<svg version="1.0" xmlns="http://www.w3.org/2000/svg"
 width="800.000000pt" height="800.000000pt" viewBox="0 0 800.000000 800.000000"
 preserveAspectRatio="xMidYMid meet">

<g transform="translate(0.000000,800.000000) scale(0.100000,-0.100000)"
fill="#F44133" stroke="none">
<path d="M2170 6769 c-44 -18 -90 -59 -112 -102 -19 -37 -22 -63 -26 -224 l-5
-183 1853 0 1852 0 -4 183 c-3 177 -4 183 -31 228 -15 26 -46 60 -69 75 l-41
29 -1696 2 c-1111 1 -1705 -1 -1721 -8z"/>
<path d="M2429 6123 l-387 -3 -7 -268 c-5 -147 -5 -719 -2 -1272 6 -989 7
-1005 26 -1021 31 -25 767 -32 2330 -22 l1304 8 19 25 c18 25 19 57 12 1288
l-7 1262 -786 0 c-432 0 -1085 2 -1451 3 -366 2 -839 2 -1051 0z"/>
<path d="M833 2363 l-23 -4 0 -393 0 -393 53 -7 c96 -11 87 -26 87 155 l0 160
27 -3 c24 -3 42 -25 120 -148 51 -80 103 -151 115 -157 26 -15 116 -17 137 -4
11 7 -2 33 -63 120 -117 169 -126 183 -126 192 0 5 24 20 53 35 64 32 94 58
117 104 47 91 31 206 -37 271 -63 61 -81 66 -268 72 -93 2 -180 3 -192 0z
m321 -127 c18 -8 41 -24 50 -37 23 -34 21 -110 -4 -142 -21 -27 -21 -26 -187
-42 l-63 -6 0 121 0 120 85 0 c51 0 99 -6 119 -14z"/>
<path d="M3150 2310 l0 -60 55 0 55 0 0 -70 c0 -38 -1 -70 -3 -70 -1 0 -20 9
-42 20 -54 28 -170 28 -224 0 -44 -22 -92 -76 -121 -136 -28 -57 -28 -210 0
-272 45 -99 100 -148 182 -161 61 -10 143 1 168 24 21 19 40 19 40 1 0 -19 22
-26 81 -26 l49 0 0 405 0 405 -120 0 -120 0 0 -60z m78 -297 c27 -20 27 -21
30 -161 l3 -140 -44 -21 c-26 -12 -63 -21 -91 -21 -43 0 -53 5 -86 38 -63 62
-77 167 -35 256 27 57 67 78 138 73 37 -2 67 -10 85 -24z"/>
<path d="M4304 2363 l-52 -4 -7 -62 c-3 -34 -3 -211 1 -394 6 -296 9 -333 23
-333 9 0 40 -3 69 -6 l52 -7 0 182 0 181 145 0 145 0 0 60 0 60 -145 0 -145 0
0 105 0 105 190 0 190 0 0 60 0 60 -207 -2 c-115 -1 -231 -3 -259 -5z"/>
<path d="M7094 2359 c-3 -6 -3 -58 1 -115 l7 -104 -66 0 -66 0 0 -60 0 -60 64
0 65 0 3 -152 c3 -140 5 -157 28 -202 35 -69 108 -110 194 -110 86 1 129 18
176 71 36 42 61 105 46 120 -3 3 -27 12 -53 18 l-48 13 -23 -44 c-12 -24 -31
-48 -41 -54 -38 -20 -94 -9 -128 26 -9 9 -13 54 -13 162 l0 149 53 7 c28 3 80
6 115 6 l62 0 0 50 0 50 -38 0 c-22 0 -73 3 -115 6 l-77 7 0 113 0 114 -69 0
c-40 0 -73 -5 -77 -11z"/>
<path d="M210 2147 c-61 -54 -64 -46 66 -171 l119 -115 -123 -124 -123 -124
36 -31 c19 -18 41 -32 48 -32 7 0 81 69 165 153 l152 152 -158 157 -157 157
-25 -22z"/>
<path d="M2367 2149 c-87 -12 -167 -45 -167 -70 0 -10 9 -33 20 -52 22 -38 41
-39 88 -9 31 20 172 28 211 13 27 -12 51 -47 51 -75 0 -9 -34 -16 -123 -23
-99 -8 -132 -15 -173 -36 -120 -61 -150 -161 -80 -267 35 -54 85 -74 176 -73
82 1 130 17 184 62 14 12 16 9 16 -24 l0 -38 46 7 c26 3 54 6 64 6 15 0 18 20
24 183 5 124 3 199 -5 235 -27 128 -146 185 -332 161z m203 -349 c0 -68 -82
-130 -171 -130 -69 0 -103 17 -107 54 -7 62 56 95 186 96 86 0 92 -1 92 -20z"/>
<path d="M6595 2151 c-46 -8 -79 -30 -118 -79 l-27 -35 0 51 0 52 -70 0 -70 0
0 -290 0 -290 70 0 70 0 0 168 c0 156 2 170 25 219 37 82 116 115 185 80 33
-17 38 -51 40 -279 l2 -188 64 0 64 0 0 143 c-1 190 -14 336 -34 374 -30 58
-111 88 -201 74z"/>
<path d="M1612 2124 c-62 -31 -106 -84 -134 -161 -43 -118 -22 -217 67 -312
69 -74 111 -91 226 -91 113 0 151 10 211 53 50 35 50 29 0 92 l-23 29 -50 -28
c-53 -29 -133 -43 -191 -32 -47 9 -118 70 -118 102 l0 24 236 0 235 0 -7 58
c-11 94 -41 161 -99 218 -62 62 -97 74 -216 74 -71 0 -93 -4 -137 -26z m264
-137 c24 -25 44 -51 44 -56 0 -7 -54 -11 -160 -11 -88 0 -160 4 -160 9 0 20
49 78 80 94 26 13 51 17 94 14 55 -3 62 -6 102 -50z"/>
<path d="M5257 2121 c-26 -17 -56 -45 -66 -62 l-19 -32 4 39 c3 22 1 44 -3 50
-5 7 -61 14 -135 18 l-128 8 0 -56 0 -56 67 0 66 0 -6 -122 c-4 -66 -7 -145
-7 -175 l0 -53 -60 0 -60 0 0 -60 0 -60 195 0 195 0 0 60 0 60 -65 0 -65 0 5
88 c10 157 13 170 51 207 43 43 98 59 183 50 l66 -6 18 45 c31 76 27 81 -88
84 -96 3 -102 2 -148 -27z"/>
<path d="M5765 2139 c-43 -12 -110 -72 -142 -127 -24 -40 -28 -60 -31 -142 -4
-92 -3 -97 30 -160 27 -52 46 -73 92 -105 57 -39 59 -40 161 -43 98 -4 107 -2
155 24 112 61 157 152 147 301 -4 65 -10 92 -31 127 -32 56 -99 113 -145 126
-44 12 -194 12 -236 -1z m195 -114 c16 -8 41 -31 57 -51 22 -30 28 -49 31
-103 5 -83 -12 -128 -64 -167 -32 -25 -47 -29 -98 -29 -113 0 -161 56 -160
186 0 76 21 121 74 156 39 27 116 31 160 8z"/>
<path d="M3547 2134 c-13 -13 -7 -38 34 -144 155 -402 166 -438 149 -480 -20
-49 -51 -64 -115 -56 l-54 6 -12 -38 c-6 -21 -9 -49 -7 -62 3 -24 6 -25 93
-28 77 -2 96 1 135 20 57 29 75 62 153 277 33 91 72 200 87 241 15 41 39 107
53 146 14 39 30 81 36 92 14 26 -1 32 -78 32 l-57 0 -18 -52 c-9 -29 -26 -80
-36 -113 -39 -121 -79 -235 -86 -246 -6 -10 -77 170 -133 338 -9 29 -19 54
-21 56 -10 9 -116 18 -123 11z"/>
</g>
</svg>
