<?xml version="1.0" standalone="no"?>
<!DOCTYPE svg PUBLIC "-//W3C//DTD SVG 20010904//EN"
 "http://www.w3.org/TR/2001/REC-SVG-20010904/DTD/svg10.dtd">
<svg version="1.0" xmlns="http://www.w3.org/2000/svg"
 width="512.000000pt" height="512.000000pt" viewBox="0 0 512.000000 512.000000"
 preserveAspectRatio="xMidYMid meet">

<g transform="translate(0.000000,512.000000) scale(0.100000,-0.100000)"
fill="#ff0000" stroke="none">
<path d="M1965 3660 c-371 -75 -660 -316 -852 -710 -130 -267 -213 -631 -200
-883 9 -191 64 -334 166 -436 138 -138 309 -189 599 -178 177 7 296 28 465 84
l109 36 -6 41 c-3 23 -11 116 -17 209 -10 145 -14 167 -28 163 -294 -87 -363
-101 -487 -94 -147 8 -212 72 -234 230 -24 168 43 492 154 742 38 86 129 218
183 265 25 23 75 56 111 73 54 27 79 33 151 36 79 3 91 1 141 -25 43 -22 66
-44 106 -100 l51 -71 141 129 141 129 6 -32 c3 -18 53 -415 110 -883 58 -467
107 -867 111 -888 l6 -37 200 2 200 3 644 1033 645 1034 -36 64 -36 64 -206
-2 -206 -3 -109 -180 c-260 -429 -531 -881 -608 -1014 -46 -80 -85 -141 -86
-135 -2 5 -10 97 -19 204 -16 208 -91 1003 -101 1083 l-6 47 -275 0 -275 0 8
-66 7 -67 -48 36 c-62 48 -138 83 -217 102 -88 21 -289 18 -403 -5z"/>
</g>
</svg>
