<svg version="1.1" id="Layer_1" xmlns="http://www.w3.org/2000/svg" xmlns:xlink="http://www.w3.org/1999/xlink" x="0px" y="0px"
	 width="100%" viewBox="0 0 512 512" enable-background="new 0 0 512 512" xml:space="preserve">
<path opacity="0.000000" stroke="none" 
	d="
M345.000000,513.000000 
	C230.027939,513.000000 115.555870,513.000000 1.041900,513.000000 
	C1.041900,342.402924 1.041900,171.805817 1.041900,1.104355 
	C171.555405,1.104355 342.110901,1.104355 512.833191,1.104355 
	C512.833191,171.666534 512.833191,342.333252 512.833191,513.000000 
	C457.139069,513.000000 401.319550,513.000000 345.000000,513.000000 
M462.479858,269.500580 
	C462.474182,233.343719 462.413666,197.186691 462.536530,161.030258 
	C462.550842,156.813644 461.505188,155.216934 456.956360,155.274597 
	C437.969055,155.515244 418.976807,155.364258 399.986389,155.368301 
	C355.828430,155.377731 311.670502,155.406693 267.512543,155.404236 
	C197.367249,155.400314 127.221916,155.403091 57.076763,155.293961 
	C53.139786,155.287842 51.924065,156.528915 51.927929,160.461441 
	C52.018051,252.122192 51.991814,343.783020 52.011520,435.443848 
	C52.012840,441.580475 53.968418,443.593353 60.021725,443.674377 
	C68.019653,443.781494 76.019768,443.738556 84.018944,443.737488 
	C205.338272,443.721039 326.657593,443.693024 447.976929,443.691895 
	C462.519196,443.691742 462.528320,443.639862 462.510132,428.963104 
	C462.444672,376.142181 462.457703,323.321136 462.479858,269.500580 
M265.500000,139.953857 
	C330.934662,139.953857 396.369324,139.953857 461.653931,139.953857 
	C462.017426,138.893585 462.309448,138.432693 462.315033,137.968369 
	C462.458862,125.981850 462.846497,113.989250 462.595734,102.010185 
	C462.428925,94.040955 454.198242,84.783356 447.112579,84.066528 
	C440.874603,83.435455 434.584137,83.040871 428.316223,83.032784 
	C370.168213,82.957787 312.020081,82.989006 253.871964,82.989662 
	C193.224670,82.990349 132.577362,82.989365 71.930061,82.994865 
	C64.781517,82.995514 58.543919,85.826218 55.641582,92.145004 
	C53.257618,97.335236 52.690254,103.517982 52.121723,109.339325 
	C51.557583,115.115715 51.997997,120.990211 51.997917,126.821686 
	C51.997856,131.071274 51.997902,135.320862 51.997902,139.954819 
	C123.386627,139.954819 193.943314,139.954819 265.500000,139.953857 
z"/>
<path fill="#F24133" opacity="1.000000" stroke="none" 
	d="
M462.460449,270.000366 
	C462.457703,323.321136 462.444672,376.142181 462.510132,428.963104 
	C462.528320,443.639862 462.519196,443.691742 447.976929,443.691895 
	C326.657593,443.693024 205.338272,443.721039 84.018944,443.737488 
	C76.019768,443.738556 68.019653,443.781494 60.021725,443.674377 
	C53.968418,443.593353 52.012840,441.580475 52.011520,435.443848 
	C51.991814,343.783020 52.018051,252.122192 51.927929,160.461441 
	C51.924065,156.528915 53.139786,155.287842 57.076763,155.293961 
	C127.221916,155.403091 197.367249,155.400314 267.512543,155.404236 
	C311.670502,155.406693 355.828430,155.377731 399.986389,155.368301 
	C418.976807,155.364258 437.969055,155.515244 456.956360,155.274597 
	C461.505188,155.216934 462.550842,156.813644 462.536530,161.030258 
	C462.413666,197.186691 462.474182,233.343719 462.460449,270.000366 
M398.366730,372.441406 
	C399.237061,371.705536 400.811127,371.013214 400.859772,370.226562 
	C401.112946,366.132416 400.977753,362.014282 400.977753,357.840149 
	C305.040955,357.840149 209.791672,357.840149 114.283951,357.840149 
	C114.283951,362.732178 114.283951,367.308746 114.283951,372.464783 
	C208.841599,372.464783 303.113403,372.464783 398.366730,372.441406 
M195.515945,295.498840 
	C195.515945,301.918823 195.515945,308.338837 195.515945,314.714539 
	C200.205780,314.714539 204.123886,314.714539 208.628204,314.714539 
	C208.628204,301.381470 208.628204,288.331207 208.628204,274.913788 
	C212.518616,274.913788 215.863449,275.248413 219.119278,274.851990 
	C229.492981,273.588898 236.669067,278.199646 242.056274,286.588989 
	C247.531982,295.116180 253.066849,303.606567 258.696869,312.032166 
	C259.512604,313.252930 260.947327,314.773010 262.192230,314.866333 
	C266.731628,315.206665 271.311951,315.000824 276.877228,315.000824 
	C271.786285,306.961731 267.597229,299.632050 262.698944,292.811737 
	C257.735443,285.900574 252.070877,279.492889 246.994156,273.212067 
	C248.799942,272.650421 251.696442,271.991150 254.399078,270.866180 
	C264.850433,266.515778 270.073730,257.167969 268.961426,245.138641 
	C267.975128,234.472092 260.846954,225.469376 249.854080,224.554520 
	C232.031357,223.071274 214.072632,223.222061 195.516342,222.663254 
	C195.516342,247.308044 195.516342,270.903625 195.515945,295.498840 
M322.993683,271.500000 
	C322.993683,285.919617 322.993683,300.339233 322.993683,314.592651 
	C327.726379,314.592651 331.776489,314.592651 336.157013,314.592651 
	C336.157013,300.909332 336.157013,287.640289 336.157013,273.825653 
	C350.379059,273.825653 364.261475,273.825653 378.331543,273.825653 
	C378.331543,269.703796 378.331543,266.140320 378.331543,262.020142 
	C364.087646,262.020142 350.199493,262.020142 336.299683,262.020142 
	C336.299683,252.732056 336.299683,244.007645 336.299683,234.790024 
	C352.686340,234.790024 368.749512,234.790024 384.696198,234.790024 
	C384.696198,230.707916 384.696198,227.131210 384.696198,223.615692 
	C363.973511,223.615692 343.610840,223.615692 322.993683,223.615692 
	C322.993683,239.536362 322.993683,255.018188 322.993683,271.500000 
M153.527725,304.026123 
	C157.092484,301.572021 160.691513,299.165955 164.213898,296.652466 
	C169.425873,292.933319 169.390854,288.289429 164.079407,284.724091 
	C155.096710,278.694427 146.059738,272.745636 137.044098,266.765106 
	C132.189423,263.544769 127.411263,260.199493 122.449837,257.152771 
	C118.519753,254.739365 116.176529,256.187225 115.813988,260.750458 
	C115.563293,263.906067 116.667717,266.011475 119.386002,267.786774 
	C130.756805,275.212891 142.002594,282.830444 153.882278,290.770905 
	C150.335678,293.252411 147.378510,295.341553 144.400909,297.401154 
	C135.913483,303.271820 127.386803,309.086456 118.941345,315.016815 
	C115.834183,317.198669 114.538025,322.874634 116.681190,325.106262 
	C119.657242,328.205109 122.155190,325.572784 124.540588,323.945892 
	C134.028580,317.474915 143.466187,310.930115 153.527725,304.026123 
M302.405273,304.484863 
	C301.615814,303.514435 300.894836,301.784912 300.024933,301.706482 
	C296.482910,301.387115 292.895264,301.573547 289.390930,301.573547 
	C289.390930,306.500031 289.390930,310.690704 289.390930,314.685425 
	C293.879791,314.685425 297.964325,314.685425 302.413635,314.685425 
	C302.413635,311.408844 302.413635,308.445709 302.405273,304.484863 
z"/>
<path fill="#F34133" opacity="1.000000" stroke="none" 
	d="
M265.000000,139.954346 
	C193.943314,139.954819 123.386627,139.954819 51.997902,139.954819 
	C51.997902,135.320862 51.997856,131.071274 51.997917,126.821686 
	C51.997997,120.990211 51.557583,115.115715 52.121723,109.339325 
	C52.690254,103.517982 53.257618,97.335236 55.641582,92.145004 
	C58.543919,85.826218 64.781517,82.995514 71.930061,82.994865 
	C132.577362,82.989365 193.224670,82.990349 253.871964,82.989662 
	C312.020081,82.989006 370.168213,82.957787 428.316223,83.032784 
	C434.584137,83.040871 440.874603,83.435455 447.112579,84.066528 
	C454.198242,84.783356 462.428925,94.040955 462.595734,102.010185 
	C462.846497,113.989250 462.458862,125.981850 462.315033,137.968369 
	C462.309448,138.432693 462.017426,138.893585 461.653931,139.953857 
	C396.369324,139.953857 330.934662,139.953857 265.000000,139.954346 
z"/>
<path fill="#030101" opacity="1.000000" stroke="none" 
	d="
M397.875977,372.453094 
	C303.113403,372.464783 208.841599,372.464783 114.283951,372.464783 
	C114.283951,367.308746 114.283951,362.732178 114.283951,357.840149 
	C209.791672,357.840149 305.040955,357.840149 400.977753,357.840149 
	C400.977753,362.014282 401.112946,366.132416 400.859772,370.226562 
	C400.811127,371.013214 399.237061,371.705536 397.875977,372.453094 
z"/>
<path fill="#FFFCFC" opacity="1.000000" stroke="none" 
	d="
M195.516144,294.999023 
	C195.516342,270.903625 195.516342,247.308044 195.516342,222.663254 
	C214.072632,223.222061 232.031357,223.071274 249.854080,224.554520 
	C260.846954,225.469376 267.975128,234.472092 268.961426,245.138641 
	C270.073730,257.167969 264.850433,266.515778 254.399078,270.866180 
	C251.696442,271.991150 248.799942,272.650421 246.994156,273.212067 
	C252.070877,279.492889 257.735443,285.900574 262.698944,292.811737 
	C267.597229,299.632050 271.786285,306.961731 276.877228,315.000824 
	C271.311951,315.000824 266.731628,315.206665 262.192230,314.866333 
	C260.947327,314.773010 259.512604,313.252930 258.696869,312.032166 
	C253.066849,303.606567 247.531982,295.116180 242.056274,286.588989 
	C236.669067,278.199646 229.492981,273.588898 219.119278,274.851990 
	C215.863449,275.248413 212.518616,274.913788 208.628204,274.913788 
	C208.628204,288.331207 208.628204,301.381470 208.628204,314.714539 
	C204.123886,314.714539 200.205780,314.714539 195.515945,314.714539 
	C195.515945,308.338837 195.515945,301.918823 195.516144,294.999023 
M229.457275,234.141418 
	C222.668671,234.141418 215.880066,234.141418 208.779938,234.141418 
	C208.779938,244.030502 208.779938,253.434814 208.779938,262.870422 
	C220.179901,262.870422 231.338516,263.427216 242.410370,262.686707 
	C250.634079,262.136719 256.126526,255.201324 255.817200,247.921417 
	C255.523895,241.018188 250.187714,235.887024 241.884674,234.849426 
	C238.099182,234.376373 234.256226,234.363205 229.457275,234.141418 
z"/>
<path fill="#FFFCFB" opacity="1.000000" stroke="none" 
	d="
M322.993683,271.000000 
	C322.993683,255.018188 322.993683,239.536362 322.993683,223.615692 
	C343.610840,223.615692 363.973511,223.615692 384.696198,223.615692 
	C384.696198,227.131210 384.696198,230.707916 384.696198,234.790024 
	C368.749512,234.790024 352.686340,234.790024 336.299683,234.790024 
	C336.299683,244.007645 336.299683,252.732056 336.299683,262.020142 
	C350.199493,262.020142 364.087646,262.020142 378.331543,262.020142 
	C378.331543,266.140320 378.331543,269.703796 378.331543,273.825653 
	C364.261475,273.825653 350.379059,273.825653 336.157013,273.825653 
	C336.157013,287.640289 336.157013,300.909332 336.157013,314.592651 
	C331.776489,314.592651 327.726379,314.592651 322.993683,314.592651 
	C322.993683,300.339233 322.993683,285.919617 322.993683,271.000000 
z"/>
<path fill="#060201" opacity="1.000000" stroke="none" 
	d="
M153.225098,304.219421 
	C143.466187,310.930115 134.028580,317.474915 124.540588,323.945892 
	C122.155190,325.572784 119.657242,328.205109 116.681190,325.106262 
	C114.538025,322.874634 115.834183,317.198669 118.941345,315.016815 
	C127.386803,309.086456 135.913483,303.271820 144.400909,297.401154 
	C147.378510,295.341553 150.335678,293.252411 153.882278,290.770905 
	C142.002594,282.830444 130.756805,275.212891 119.386002,267.786774 
	C116.667717,266.011475 115.563293,263.906067 115.813988,260.750458 
	C116.176529,256.187225 118.519753,254.739365 122.449837,257.152771 
	C127.411263,260.199493 132.189423,263.544769 137.044098,266.765106 
	C146.059738,272.745636 155.096710,278.694427 164.079407,284.724091 
	C169.390854,288.289429 169.425873,292.933319 164.213898,296.652466 
	C160.691513,299.165955 157.092484,301.572021 153.225098,304.219421 
z"/>
<path fill="#FFFFFF" opacity="1.000000" stroke="none" 
	d="
M302.409454,304.983704 
	C302.413635,308.445709 302.413635,311.408844 302.413635,314.685425 
	C297.964325,314.685425 293.879791,314.685425 289.390930,314.685425 
	C289.390930,310.690704 289.390930,306.500031 289.390930,301.573547 
	C292.895264,301.573547 296.482910,301.387115 300.024933,301.706482 
	C300.894836,301.784912 301.615814,303.514435 302.409454,304.983704 
z"/>
<path fill="#F44537" opacity="1.000000" stroke="none" 
	d="
M229.948303,234.141434 
	C234.256226,234.363205 238.099182,234.376373 241.884674,234.849426 
	C250.187714,235.887024 255.523895,241.018188 255.817200,247.921417 
	C256.126526,255.201324 250.634079,262.136719 242.410370,262.686707 
	C231.338516,263.427216 220.179901,262.870422 208.779938,262.870422 
	C208.779938,253.434814 208.779938,244.030502 208.779938,234.141418 
	C215.880066,234.141418 222.668671,234.141418 229.948303,234.141434 
z"/>
</svg>
